<svg xmlns="http://www.w3.org/2000/svg" width="31.751" height="20.899" viewBox="0 0 31.751 20.899">
  <g id="if_behance-social-media_765241" transform="translate(0 0)">
    <g id="behance" transform="translate(0 0)">
      <path id="Path_55" data-name="Path 55" d="M20.824,1.774V3.913h8.2V1.774ZM.115.661,9.58.77s5.2-.286,5.914,4.019-2.614,5.322-2.614,5.322,4.113.975,3.541,6-6.19,5.08-6.19,5.08H.115ZM4.421,8.832l3.917.025A6.848,6.848,0,0,0,9.79,8.7a2.41,2.41,0,0,0,1-.513,2.431,2.431,0,0,0,.505-.871,3.663,3.663,0,0,0,.169-1.029A2.33,2.33,0,0,0,11.29,5.4a1.912,1.912,0,0,0-.505-.711,2.38,2.38,0,0,0-.857-.47,4.014,4.014,0,0,0-1.238-.17L4.421,4.02Zm0,8.634,4.279.028a7.4,7.4,0,0,0,1.586-.173,2.622,2.622,0,0,0,1.087-.567,2.693,2.693,0,0,0,.552-.963,4.09,4.09,0,0,0,.184-1.137,2.6,2.6,0,0,0-.184-.987,2.113,2.113,0,0,0-.552-.786,2.591,2.591,0,0,0-.937-.519,4.338,4.338,0,0,0-1.353-.187l-4.663-.028Zm17.308-2.735c.006.12,0,3.068,2.316,3.746a3.252,3.252,0,0,0,3.98-1.814h3.522c-.091.443-1.523,6.467-9.313,4.5C17.453,19.962,17.7,14.056,17.7,13.55a8.221,8.221,0,0,1,1.946-5.228,6.788,6.788,0,0,1,5.226-2.285,6.928,6.928,0,0,1,5.154,2.016c2.253,2.609,1.806,6.789,1.806,6.789ZM27.9,12.147a4.227,4.227,0,0,0-.266-1.278,3.134,3.134,0,0,0-.621-1.013,2.841,2.841,0,0,0-.949-.673,3.021,3.021,0,0,0-1.236-.245,2.55,2.55,0,0,0-1.14.258,3.011,3.011,0,0,0-.922.7,3.541,3.541,0,0,0-.635,1.02,3.824,3.824,0,0,0-.28,1.23Z" transform="translate(-0.115 -0.661)" fill="#c356bb" fill-rule="evenodd"/>
    </g>
  </g>
</svg>
