<svg xmlns="http://www.w3.org/2000/svg" xmlns:xlink="http://www.w3.org/1999/xlink" width="95" height="95" viewBox="0 0 95 95">
  <defs>
    <clipPath id="clip-path">
      <rect id="Rectangle_7" data-name="Rectangle 7" width="77.787" height="69.526" fill="#fff7fc" stroke="#707070" stroke-width="1"/>
    </clipPath>
  </defs>
  <g id="Group_77" data-name="Group 77" transform="translate(-356 -1618)">
    <ellipse id="Ellipse_5" data-name="Ellipse 5" cx="47.5" cy="47.5" rx="47.5" ry="47.5" transform="translate(356 1618)" fill="#82d6c9"/>
    <g id="Mask_Group_2" data-name="Mask Group 2" transform="translate(368.893 1627.5)" clip-path="url(#clip-path)">
      <g id="if_cup-line_383154" transform="translate(7.633 5.475)">
        <path id="Path_10" data-name="Path 10" d="M50.3,62.682H46.527V57.57H0V77.377C0,88.669,10.415,97.824,23.263,97.824c10.573,0,19.485-6.205,22.314-14.7H50.3c6.749,0,12.222-4.29,12.222-10.223S57.048,62.682,50.3,62.682ZM23.263,92.712c-9.621,0-17.448-6.879-17.448-15.335v-14.7H39.257V82h0C36.663,87.617,30.57,92.712,23.263,92.712ZM50.3,78.016H46.49c.006-.215.036-.423.036-.639V67.793H50.3c3.183,0,6.406,1.756,6.406,5.112S53.481,78.016,50.3,78.016Z" transform="translate(0 -39.086)" fill="#fff7fc"/>
        <path id="Path_18" data-name="Path 18" d="M50.3,62.682H46.527V57.57H0V77.377C0,88.669,10.415,97.824,23.263,97.824c10.573,0,19.485-6.205,22.314-14.7H50.3c6.749,0,12.222-4.29,12.222-10.223S57.048,62.682,50.3,62.682ZM23.263,92.712c-9.621,0-17.448-6.879-17.448-15.335V60.047H39.257V82h0C36.663,87.617,30.57,92.712,23.263,92.712ZM50.3,78.016H46.49c.006-.215.036-.423.036-.639V67.793H50.3c3.183,0,6.406,1.756,6.406,5.112S53.481,78.016,50.3,78.016Z" transform="translate(0 -36.661)" fill="#fff7fc" opacity="0.2"/>
        <g id="Group_28" data-name="Group 28" transform="translate(11.484 0)">
          <path id="Path_15" data-name="Path 15" d="M22.156,16.373c.033.225.062.427.095.606.126.714.226,1.059.226,1.059s.127-.372.3-.914l.134-.433c.05-.151.117-.3.179-.448a6.574,6.574,0,0,1,.4-.9c.077-.142.147-.29.22-.432l.259-.4c.044-.065.082-.139.121-.211l.145-.2c.1-.127.182-.288.282-.428.216-.287.41-.6.649-.942.217-.339.472-.731.7-1.136.252-.443.49-.877.737-1.417A17.409,17.409,0,0,0,27.3,8.447c.1-.326.2-.666.292-1q.065-.253.13-.5c.039-.184.076-.366.108-.551.065-.369.131-.713.181-1.057.036-.378.071-.731.094-1.073a14.833,14.833,0,0,0,.018-1.926c-.018-.277-.02-.544-.054-.744s-.065-.381-.1-.546C27.84.383,27.742,0,27.742,0s-.124.335-.3.928c-.044.149-.088.314-.136.493a3.834,3.834,0,0,1-.181.444,8.328,8.328,0,0,1-.4.835c-.078.141-.147.29-.22.434-.09.129-.173.271-.259.4-.043.066-.083.137-.122.21l-.146.2c-.1.128-.183.286-.282.428-.217.283-.409.6-.649.94-.217.338-.473.727-.706,1.132-.252.442-.491.873-.738,1.412a17.55,17.55,0,0,0-.684,1.723c-.1.328-.206.665-.292,1l-.13.5c-.038.185-.076.365-.109.55-.065.369-.13.714-.181,1.058-.036.38-.071.735-.094,1.076a13.6,13.6,0,0,0-.011,1.86C22.123,15.906,22.124,16.146,22.156,16.373Z" transform="translate(-22.078)" fill="#fff7fc"/>
          <path id="Path_19" data-name="Path 19" d="M22.156,16.373c.033.225.062.427.095.606.126.714.226,1.059.226,1.059s.127-.372.3-.914l.134-.433c.05-.151.117-.3.179-.448a6.574,6.574,0,0,1,.4-.9c.077-.142.147-.29.22-.432l.259-.4c.044-.065.082-.139.121-.211l.145-.2c.1-.127.182-.288.282-.428.216-.287.41-.6.649-.942.217-.339.472-.731.7-1.136.252-.443.49-.877.737-1.417A17.409,17.409,0,0,0,27.3,8.447c.1-.326.2-.666.292-1q.065-.253.13-.5c.039-.184.076-.366.108-.551.065-.369.131-.713.181-1.057.036-.378.071-.731.094-1.073a14.833,14.833,0,0,0,.018-1.926c-.018-.277-.02-.544-.054-.744s-.065-.381-.1-.546C27.84.383,27.742,0,27.742,0s-.124.335-.3.928c-.044.149-.088.314-.136.493a3.834,3.834,0,0,1-.181.444,8.328,8.328,0,0,1-.4.835c-.078.141-.147.29-.22.434-.09.129-.173.271-.259.4-.043.066-.083.137-.122.21l-.146.2c-.1.128-.183.286-.282.428-.217.283-.409.6-.649.94-.217.338-.473.727-.706,1.132-.252.442-.491.873-.738,1.412a17.55,17.55,0,0,0-.684,1.723c-.1.328-.206.665-.292,1l-.13.5c-.038.185-.076.365-.109.55-.065.369-.13.714-.181,1.058-.036.38-.071.735-.094,1.076a13.6,13.6,0,0,0-.011,1.86C22.123,15.906,22.124,16.146,22.156,16.373Z" transform="translate(-21.084)" fill="#fff7fc" opacity="0.2"/>
        </g>
        <g id="Group_29" data-name="Group 29" transform="translate(31.103 0)">
          <path id="Path_15-2" data-name="Path 15" d="M22.156,16.373c.033.225.062.427.095.606.126.714.226,1.059.226,1.059s.127-.372.3-.914l.134-.433c.05-.151.117-.3.179-.448a6.574,6.574,0,0,1,.4-.9c.077-.142.147-.29.22-.432l.259-.4c.044-.065.082-.139.121-.211l.145-.2c.1-.127.182-.288.282-.428.216-.287.41-.6.649-.942.217-.339.472-.731.7-1.136.252-.443.49-.877.737-1.417A17.409,17.409,0,0,0,27.3,8.447c.1-.326.2-.666.292-1q.065-.253.13-.5c.039-.184.076-.366.108-.551.065-.369.131-.713.181-1.057.036-.378.071-.731.094-1.073a14.833,14.833,0,0,0,.018-1.926c-.018-.277-.02-.544-.054-.744s-.065-.381-.1-.546C27.84.383,27.742,0,27.742,0s-.124.335-.3.928c-.044.149-.088.314-.136.493a3.834,3.834,0,0,1-.181.444,8.328,8.328,0,0,1-.4.835c-.078.141-.147.29-.22.434-.09.129-.173.271-.259.4-.043.066-.083.137-.122.21l-.146.2c-.1.128-.183.286-.282.428-.217.283-.409.6-.649.94-.217.338-.473.727-.706,1.132-.252.442-.491.873-.738,1.412a17.55,17.55,0,0,0-.684,1.723c-.1.328-.206.665-.292,1l-.13.5c-.038.185-.076.365-.109.55-.065.369-.13.714-.181,1.058-.036.38-.071.735-.094,1.076a13.6,13.6,0,0,0-.011,1.86C22.123,15.906,22.124,16.146,22.156,16.373Z" transform="translate(-22.078)" fill="#fff7fc"/>
          <path id="Path_19-2" data-name="Path 19" d="M22.156,16.373c.033.225.062.427.095.606.126.714.226,1.059.226,1.059s.127-.372.3-.914l.134-.433c.05-.151.117-.3.179-.448a6.574,6.574,0,0,1,.4-.9c.077-.142.147-.29.22-.432l.259-.4c.044-.065.082-.139.121-.211l.145-.2c.1-.127.182-.288.282-.428.216-.287.41-.6.649-.942.217-.339.472-.731.7-1.136.252-.443.49-.877.737-1.417A17.409,17.409,0,0,0,27.3,8.447c.1-.326.2-.666.292-1q.065-.253.13-.5c.039-.184.076-.366.108-.551.065-.369.131-.713.181-1.057.036-.378.071-.731.094-1.073a14.833,14.833,0,0,0,.018-1.926c-.018-.277-.02-.544-.054-.744s-.065-.381-.1-.546C27.84.383,27.742,0,27.742,0s-.124.335-.3.928c-.044.149-.088.314-.136.493a3.834,3.834,0,0,1-.181.444,8.328,8.328,0,0,1-.4.835c-.078.141-.147.29-.22.434-.09.129-.173.271-.259.4-.043.066-.083.137-.122.21l-.146.2c-.1.128-.183.286-.282.428-.217.283-.409.6-.649.94-.217.338-.473.727-.706,1.132-.252.442-.491.873-.738,1.412a17.55,17.55,0,0,0-.684,1.723c-.1.328-.206.665-.292,1l-.13.5c-.038.185-.076.365-.109.55-.065.369-.13.714-.181,1.058-.036.38-.071.735-.094,1.076a13.6,13.6,0,0,0-.011,1.86C22.123,15.906,22.124,16.146,22.156,16.373Z" transform="translate(-21.084)" fill="#fff7fc" opacity="0.2"/>
        </g>
        <g id="Group_30" data-name="Group 30" transform="translate(21.416 0)">
          <path id="Path_15-3" data-name="Path 15" d="M22.156,16.373c.033.225.062.427.095.606.126.714.226,1.059.226,1.059s.127-.372.3-.914l.134-.433c.05-.151.117-.3.179-.448a6.574,6.574,0,0,1,.4-.9c.077-.142.147-.29.22-.432l.259-.4c.044-.065.082-.139.121-.211l.145-.2c.1-.127.182-.288.282-.428.216-.287.41-.6.649-.942.217-.339.472-.731.7-1.136.252-.443.49-.877.737-1.417A17.409,17.409,0,0,0,27.3,8.447c.1-.326.2-.666.292-1q.065-.253.13-.5c.039-.184.076-.366.108-.551.065-.369.131-.713.181-1.057.036-.378.071-.731.094-1.073a14.833,14.833,0,0,0,.018-1.926c-.018-.277-.02-.544-.054-.744s-.065-.381-.1-.546C27.84.383,27.742,0,27.742,0s-.124.335-.3.928c-.044.149-.088.314-.136.493a3.834,3.834,0,0,1-.181.444,8.328,8.328,0,0,1-.4.835c-.078.141-.147.29-.22.434-.09.129-.173.271-.259.4-.043.066-.083.137-.122.21l-.146.2c-.1.128-.183.286-.282.428-.217.283-.409.6-.649.94-.217.338-.473.727-.706,1.132-.252.442-.491.873-.738,1.412a17.55,17.55,0,0,0-.684,1.723c-.1.328-.206.665-.292,1l-.13.5c-.038.185-.076.365-.109.55-.065.369-.13.714-.181,1.058-.036.38-.071.735-.094,1.076a13.6,13.6,0,0,0-.011,1.86C22.123,15.906,22.124,16.146,22.156,16.373Z" transform="translate(-22.078)" fill="#fff7fc"/>
          <path id="Path_19-3" data-name="Path 19" d="M22.156,16.373c.033.225.062.427.095.606.126.714.226,1.059.226,1.059s.127-.372.3-.914l.134-.433c.05-.151.117-.3.179-.448a6.574,6.574,0,0,1,.4-.9c.077-.142.147-.29.22-.432l.259-.4c.044-.065.082-.139.121-.211l.145-.2c.1-.127.182-.288.282-.428.216-.287.41-.6.649-.942.217-.339.472-.731.7-1.136.252-.443.49-.877.737-1.417A17.409,17.409,0,0,0,27.3,8.447c.1-.326.2-.666.292-1q.065-.253.13-.5c.039-.184.076-.366.108-.551.065-.369.131-.713.181-1.057.036-.378.071-.731.094-1.073a14.833,14.833,0,0,0,.018-1.926c-.018-.277-.02-.544-.054-.744s-.065-.381-.1-.546C27.84.383,27.742,0,27.742,0s-.124.335-.3.928c-.044.149-.088.314-.136.493a3.834,3.834,0,0,1-.181.444,8.328,8.328,0,0,1-.4.835c-.078.141-.147.29-.22.434-.09.129-.173.271-.259.4-.043.066-.083.137-.122.21l-.146.2c-.1.128-.183.286-.282.428-.217.283-.409.6-.649.94-.217.338-.473.727-.706,1.132-.252.442-.491.873-.738,1.412a17.55,17.55,0,0,0-.684,1.723c-.1.328-.206.665-.292,1l-.13.5c-.038.185-.076.365-.109.55-.065.369-.13.714-.181,1.058-.036.38-.071.735-.094,1.076a13.6,13.6,0,0,0-.011,1.86C22.123,15.906,22.124,16.146,22.156,16.373Z" transform="translate(-21.084)" fill="#fff7fc" opacity="0.2"/>
        </g>
      </g>
    </g>
  </g>
</svg>
