<svg xmlns="http://www.w3.org/2000/svg" width="95" height="95" viewBox="0 0 95 95">
  <g id="if_gamecontroller_1055053" transform="translate(-1 -1)">
    <circle id="Ellipse_7" data-name="Ellipse 7" cx="47.5" cy="47.5" r="47.5" transform="translate(1 1)" fill="#82d6c9"/>
    <g id="Group_76" data-name="Group 76" transform="translate(-78.107 -28.5)">
      <g id="if_cup-line_383154" transform="translate(92.107 43.5)">
        <g id="iconfinder_Restaurant_1_753879" transform="translate(0)">
          <path id="Path_82" data-name="Path 82" d="M68.308,35.451H8.066c-2.742,0-3.2,1.486-3.234,2.351,1.357,15.444,15.9,27.619,33.681,27.619,17.5,0,31.9-11.786,33.639-26.887a.454.454,0,0,0,.007-.07c.024-.19.016-.384.035-.577C72.088,35.719,69.267,35.472,68.308,35.451ZM38.474,61.768c-13.637,0-24.751-9.477-25.5-21.4.109-.583.589-1.266,2.306-1.266H62.138A1.66,1.66,0,0,1,63.947,40.8C62.968,52.517,51.951,61.768,38.474,61.768Z" transform="translate(-4.832 1.782)" fill="#fff7fc"/>
          <path id="Path_83" data-name="Path 83" d="M27.788,11.428" transform="translate(0.671 0.531)" fill="#fff7fc"/>
          <path id="Path_84" data-name="Path 84" d="M48.536,17.755a5.921,5.921,0,0,0-1.373-2.106c-.014-.018-.017-.028-.033-.046a.62.62,0,0,0-.046-.043c-.014-.012-.026-.023-.04-.037A4.949,4.949,0,0,0,46.3,14.9c-.079-.058-.158-.114-.244-.165a4.989,4.989,0,0,0-.567-.3,10.65,10.65,0,0,0-4.323-.609H25.892a6.926,6.926,0,0,1-2.112-.328,3.818,3.818,0,0,1-.383-.206c-.017-.015-.043-.024-.063-.041a3.535,3.535,0,0,1,2-6.449h8.791a3.352,3.352,0,0,0,3.685-3.229V1.155A.989.989,0,0,0,37.033.061c-.99.029-2.57.277-2.57,1.6V2.43c-.036.4-.274,1.137-1.61,1.137H24.781c-.014,0-.029,0-.043,0a12.684,12.684,0,0,0-1.379.139l-.02,0a3.589,3.589,0,0,0-.709.184.857.857,0,0,0-.139.079,7.1,7.1,0,0,0,.888,13.695,7.463,7.463,0,0,0,1.376.215v.029h.3c.04,0,.08.012.119.012s.076-.009.119-.012l.865,0v.006l15.252,0c2.045,0,2.93.549,3.3.917a3.5,3.5,0,0,1-1.178,4.433.542.542,0,0,1-.063.041,3.374,3.374,0,0,1-.379.206,6.962,6.962,0,0,1-2.116.328h-16.6a8.627,8.627,0,0,0-2.334.335l-.093.032c-.119.038-.238.081-.356.128a5.046,5.046,0,0,0-1.769,1.208c-.014.014-.026.024-.04.037a.465.465,0,0,0-.046.043.564.564,0,0,0-.034.046,5.867,5.867,0,0,0-1.785,4.216,5.025,5.025,0,0,0,.132,1.12,1.466,1.466,0,0,0,1.528,1.1h.511c1.24-.028,1.56-2.308,1.56-2.308h.006a2.578,2.578,0,0,1,.334-.746.183.183,0,0,1,.02-.029c.017-.023.037-.041.053-.064.3-.358,1.158-1.014,3.393-1.014H40.707v-.006l.867,0c.04,0,.079.012.119.012s.076-.012.115-.012l.307,0v-.027a7.355,7.355,0,0,0,1.373-.215,7.123,7.123,0,0,0,5.721-6.983A6.983,6.983,0,0,0,48.536,17.755Z" transform="translate(1.208 -0.061)" fill="#fff7fc"/>
        </g>
      </g>
      <g id="if_cup-line_383154-2" data-name="if_cup-line_383154" transform="translate(92.107 44.552)">
        <g id="iconfinder_Restaurant_1_753879-2" data-name="iconfinder_Restaurant_1_753879" transform="translate(0)">
          <path id="Path_82-2" data-name="Path 82" d="M68.308,35.451H8.066c-2.742,0-3.2,1.486-3.234,2.351,1.357,15.444,15.9,27.619,33.681,27.619,17.5,0,31.9-11.786,33.639-26.887a.454.454,0,0,0,.007-.07c.024-.19.016-.384.035-.577C72.088,35.719,69.267,35.472,68.308,35.451ZM38.474,61.768c-13.637,0-24.751-9.477-25.5-21.4.109-.583.589-1.266,2.306-1.266H62.138A1.66,1.66,0,0,1,63.947,40.8C62.968,52.517,51.951,61.768,38.474,61.768Z" transform="translate(-4.832 1.782)" fill="#fff7fc" opacity="0.2"/>
          <path id="Path_83-2" data-name="Path 83" d="M27.788,11.428" transform="translate(0.671 0.531)" fill="#fff7fc" opacity="0.2"/>
          <path id="Path_84-2" data-name="Path 84" d="M48.536,17.755a5.921,5.921,0,0,0-1.373-2.106c-.014-.018-.017-.028-.033-.046a.62.62,0,0,0-.046-.043c-.014-.012-.026-.023-.04-.037A4.949,4.949,0,0,0,46.3,14.9c-.079-.058-.158-.114-.244-.165a4.989,4.989,0,0,0-.567-.3,10.65,10.65,0,0,0-4.323-.609H25.892a6.926,6.926,0,0,1-2.112-.328,3.818,3.818,0,0,1-.383-.206c-.017-.015-.043-.024-.063-.041a3.535,3.535,0,0,1,2-6.449h8.791a3.352,3.352,0,0,0,3.685-3.229V1.155A.989.989,0,0,0,37.033.061c-.99.029-2.57.277-2.57,1.6V2.43c-.036.4-.274,1.137-1.61,1.137H24.781c-.014,0-.029,0-.043,0a12.684,12.684,0,0,0-1.379.139l-.02,0a3.589,3.589,0,0,0-.709.184.857.857,0,0,0-.139.079,7.1,7.1,0,0,0,.888,13.695,7.463,7.463,0,0,0,1.376.215v.029h.3c.04,0,.08.012.119.012s.076-.009.119-.012l.865,0v.006l15.252,0c2.045,0,2.93.549,3.3.917a3.5,3.5,0,0,1-1.178,4.433.542.542,0,0,1-.063.041,3.374,3.374,0,0,1-.379.206,6.962,6.962,0,0,1-2.116.328h-16.6a8.627,8.627,0,0,0-2.334.335l-.093.032c-.119.038-.238.081-.356.128a5.046,5.046,0,0,0-1.769,1.208c-.014.014-.026.024-.04.037a.465.465,0,0,0-.046.043.564.564,0,0,0-.034.046,5.867,5.867,0,0,0-1.785,4.216,5.025,5.025,0,0,0,.132,1.12,1.466,1.466,0,0,0,1.528,1.1h.511c1.24-.028,1.56-2.308,1.56-2.308h.006a2.578,2.578,0,0,1,.334-.746.183.183,0,0,1,.02-.029c.017-.023.037-.041.053-.064.3-.358,1.158-1.014,3.393-1.014H40.707v-.006l.867,0c.04,0,.079.012.119.012s.076-.012.115-.012l.307,0v-.027a7.355,7.355,0,0,0,1.373-.215,7.123,7.123,0,0,0,5.721-6.983A6.983,6.983,0,0,0,48.536,17.755Z" transform="translate(1.208 -0.061)" fill="#fff7fc" opacity="0.2"/>
        </g>
      </g>
    </g>
  </g>
</svg>
