<svg id="if_die_1055072" xmlns="http://www.w3.org/2000/svg" width="95" height="95" viewBox="0 0 95 95">
  <g id="Group_48" data-name="Group 48">
    <circle id="Ellipse_10" data-name="Ellipse 10" cx="47.5" cy="47.5" r="47.5" fill="#82d6c9"/>
  </g>
  <g id="Group_49" data-name="Group 49" transform="translate(16.122 16.137)" opacity="0.2">
    <path id="Path_27" data-name="Path 27" d="M68.1,23.9,47.752,12.152a12.51,12.51,0,0,0-11.026,0L16.374,23.9a12.2,12.2,0,0,0-5.513,9.549v23.5A12.206,12.206,0,0,0,16.374,66.5L36.726,78.254a11.206,11.206,0,0,0,5.513,1.324,11.206,11.206,0,0,0,5.513-1.324L68.1,66.5a12.2,12.2,0,0,0,5.513-9.549v-23.5A12.2,12.2,0,0,0,68.1,23.9Z" transform="translate(-10.861 -10.872)" fill="#fff7fc"/>
  </g>
  <g id="Group_61" data-name="Group 61" transform="translate(16.122 13.168)">
    <g id="Group_50" data-name="Group 50">
      <path id="Path_28" data-name="Path 28" d="M47.139,10.568a11.407,11.407,0,0,0-10.284,0L16.5,22.318a11.409,11.409,0,0,0-5.142,8.906v23.5A11.409,11.409,0,0,0,16.5,63.631l20.352,11.75a11.407,11.407,0,0,0,10.284,0l20.352-11.75a11.409,11.409,0,0,0,5.142-8.906v-23.5a11.409,11.409,0,0,0-5.142-8.906Z" transform="translate(-10.619 -8.642)" fill="#fff7fc"/>
      <path id="Path_29" data-name="Path 29" d="M42.239,77.577a11.174,11.174,0,0,1-5.513-1.326L16.374,64.5a12.2,12.2,0,0,1-5.513-9.549v-23.5A12.206,12.206,0,0,1,16.374,21.9l20.352-11.75a12.49,12.49,0,0,1,11.026,0L68.1,21.9a12.2,12.2,0,0,1,5.513,9.549v23.5A12.206,12.206,0,0,1,68.1,64.5L47.752,76.253A11.189,11.189,0,0,1,42.239,77.577Zm0-67.263a9.726,9.726,0,0,0-4.771,1.125L17.116,23.189a10.726,10.726,0,0,0-4.771,8.264v23.5a10.721,10.721,0,0,0,4.771,8.264l20.352,11.75a11.007,11.007,0,0,0,9.542,0l20.352-11.75a10.726,10.726,0,0,0,4.771-8.264v-23.5a10.721,10.721,0,0,0-4.771-8.264L47.01,11.439A9.71,9.71,0,0,0,42.239,10.314Z" transform="translate(-10.861 -8.871)" fill="#fff7fc"/>
    </g>
    <g id="Group_51" data-name="Group 51" transform="translate(5.247 2.184)">
      <path id="Path_30" data-name="Path 30" d="M40.527,39.262a9.1,9.1,0,0,1-4.4-1.026L15.775,26.485C14.9,25.978,14.4,25.365,14.4,24.8s.5-1.177,1.379-1.682L36.127,11.368a9.949,9.949,0,0,1,8.8,0L65.279,23.119c.876.5,1.379,1.119,1.379,1.682s-.5,1.177-1.379,1.683L44.927,38.235A9.083,9.083,0,0,1,40.527,39.262Z" transform="translate(-14.396 -10.342)" fill="#82d6c9"/>
    </g>
    <g id="Group_52" data-name="Group 52" transform="translate(1.979 20.4)">
      <path id="Path_31" data-name="Path 31" d="M38.49,68.166a3.228,3.228,0,0,1-1.542-.5L16.594,55.917a9.884,9.884,0,0,1-4.4-7.621V24.8c0-.656.134-2.182,1.373-2.182a3.22,3.22,0,0,1,1.542.5l20.352,11.75a9.893,9.893,0,0,1,4.4,7.621v23.5a2.9,2.9,0,0,1-.468,1.774,1.073,1.073,0,0,1-.9.407Z" transform="translate(-12.194 -22.614)" fill="#82d6c9"/>
    </g>
    <g id="Group_53" data-name="Group 53" transform="translate(32.863 20.4)">
      <path id="Path_32" data-name="Path 32" d="M34.373,68.166c-1.239,0-1.373-1.524-1.373-2.181v-23.5a9.889,9.889,0,0,1,4.4-7.621l20.352-11.75a3.22,3.22,0,0,1,1.542-.5c1.239,0,1.373,1.526,1.373,2.182V48.3a9.887,9.887,0,0,1-4.4,7.621L35.915,67.669a3.228,3.228,0,0,1-1.542.5Z" transform="translate(-33 -22.614)" fill="#82d6c9"/>
    </g>
    <g id="Group_54" data-name="Group 54" transform="translate(27.915 14.541)">
      <path id="Path_33" data-name="Path 33" d="M33.13,22.872c-1.878,0-3.463-.962-3.463-2.1s1.587-2.1,3.463-2.1,3.463.963,3.463,2.1S35.008,22.872,33.13,22.872Z" transform="translate(-29.667 -18.667)" fill="#fff7fc"/>
    </g>
    <g id="Group_55" data-name="Group 55" transform="translate(4.259 43.557)">
      <path id="Path_34" data-name="Path 34" d="M15.832,44.38c-1.14,0-2.1-1.412-2.1-3.082s.962-3.083,2.1-3.083,2.1,1.412,2.1,3.083S16.97,44.38,15.832,44.38Z" transform="translate(-13.73 -38.215)" fill="#fff7fc"/>
    </g>
    <g id="Group_56" data-name="Group 56" transform="translate(53.552 43.557)">
      <path id="Path_35" data-name="Path 35" d="M49.04,44.38c-1.14,0-2.1-1.412-2.1-3.082s.962-3.083,2.1-3.083,2.1,1.412,2.1,3.083S50.18,44.38,49.04,44.38Z" transform="translate(-46.938 -38.215)" fill="#fff7fc"/>
    </g>
    <g id="Group_57" data-name="Group 57" transform="translate(4.259 25.839)">
      <path id="Path_36" data-name="Path 36" d="M15.832,32.443c-1.14,0-2.1-1.412-2.1-3.082s.962-3.083,2.1-3.083,2.1,1.412,2.1,3.083S16.97,32.443,15.832,32.443Z" transform="translate(-13.73 -26.278)" fill="#fff7fc"/>
    </g>
    <g id="Group_58" data-name="Group 58" transform="translate(21.731 37.247)">
      <path id="Path_37" data-name="Path 37" d="M27.6,40.13c-1.14,0-2.1-1.412-2.1-3.083s.962-3.083,2.1-3.083,2.1,1.412,2.1,3.083S28.743,40.13,27.6,40.13Z" transform="translate(-25.501 -33.964)" fill="#fff7fc"/>
    </g>
    <g id="Group_59" data-name="Group 59" transform="translate(36.637 37.247)">
      <path id="Path_38" data-name="Path 38" d="M37.645,40.13c-1.14,0-2.1-1.412-2.1-3.083s.962-3.083,2.1-3.083,2.1,1.412,2.1,3.083S38.783,40.13,37.645,40.13Z" transform="translate(-35.543 -33.964)" fill="#fff7fc"/>
    </g>
    <g id="Group_60" data-name="Group 60" transform="translate(21.731 53.607)">
      <path id="Path_39" data-name="Path 39" d="M27.6,51.151c-1.14,0-2.1-1.412-2.1-3.083s.962-3.083,2.1-3.083,2.1,1.412,2.1,3.083S28.743,51.151,27.6,51.151Z" transform="translate(-25.501 -44.985)" fill="#fff7fc"/>
    </g>
  </g>
</svg>
