<svg xmlns="http://www.w3.org/2000/svg" width="33.75" height="23.032" viewBox="0 0 33.75 23.032"><g transform="translate(-5.625 -10.718)"><g opacity="0.2"><path d="M33.75,22.5a11.244,11.244,0,0,0-6.588-10.23,1.246,1.246,0,0,0-1.849,1.171v5.977a.988.988,0,0,0,1.055.972h2.152c1.034,0,1.324.792.643,1.661l-5.423,6.911a1.5,1.5,0,0,1-2.478,0l-5.423-6.911c-.681-.868-.392-1.661.643-1.661h2.152a.988.988,0,0,0,1.055-.972V13.442a1.433,1.433,0,0,0-1.936-1.132h-.006A11.278,11.278,0,0,0,11.6,19.776,7.027,7.027,0,0,0,12.656,33.75H33.75a5.625,5.625,0,0,0,0-11.25Z" fill="#fff7fc"/></g><path d="M33.75,21.094a11.244,11.244,0,0,0-6.588-10.23,1.246,1.246,0,0,0-1.849,1.171v5.977a.988.988,0,0,0,1.055.972h2.152c1.034,0,1.324.792.643,1.661l-5.423,6.911a1.5,1.5,0,0,1-2.478,0l-5.423-6.911c-.681-.868-.392-1.661.643-1.661h2.152a.988.988,0,0,0,1.055-.972V12.035A1.433,1.433,0,0,0,17.752,10.9h-.006A11.278,11.278,0,0,0,11.6,18.37a7.027,7.027,0,0,0,1.061,13.974H33.75a5.625,5.625,0,0,0,0-11.25Z" fill="#fff7fc"/></g></svg>