<svg xmlns="http://www.w3.org/2000/svg" width="20.415" height="21.302" viewBox="0 0 20.415 21.302">
  <path id="Path_52" data-name="Path 52" d="M23.766,28.452a11.939,11.939,0,0,1-5.54,1.162A9.21,9.21,0,0,1,8.8,20c0-6.243,4.468-11.691,11.323-11.691,5.388,0,9.091,3.734,9.091,8.845,0,4.529-2.54,7.283-5.633,7.283a2.332,2.332,0,0,1-2.478-2.51h-.093a4.6,4.6,0,0,1-4.1,2.51c-1.9,0-3.4-1.468-3.4-3.918a7.112,7.112,0,0,1,7.224-7.191,8.475,8.475,0,0,1,3.491.7l-.981,5.6c-.366,2.051-.093,3,.828,3,1.438.062,3.121-1.806,3.121-5.325,0-4.223-2.6-7.314-7.345-7.314-4.837,0-8.97,3.764-8.97,9.794,0,5.11,3.308,8.11,7.836,8.11a9.658,9.658,0,0,0,4.531-1.011ZM21.533,15.567a4.084,4.084,0,0,0-1.223-.184c-2.327,0-4.163,2.264-4.163,4.866,0,1.255.582,2.111,1.714,2.111,1.438,0,2.814-1.837,3.122-3.641Z" transform="translate(-8.801 -8.312)" fill="#fff7fc"/>
</svg>
