<svg xmlns="http://www.w3.org/2000/svg" width="32.095" height="34.356" viewBox="0 0 32.095 34.356">
  <path id="Path_45" data-name="Path 45" d="M351.747,306.282a.93.93,0,0,0,.014-.166c0-.406,0-.786-.008-1.295-.005-.572-.012-1.282-.018-2.1-6.122,1.111-7.551-3.188-7.61-3.373a5.586,5.586,0,0,0-2.318-3.092l-.05-.028c-3.086-2.109.36-2.065.37-2.065h.024a5.131,5.131,0,0,1,3.769,2.519h0a4.307,4.307,0,0,0,2.533,2.133,5.314,5.314,0,0,0,3.388-.325,6.279,6.279,0,0,1,.505-1.65,4.726,4.726,0,0,1,.5-.83,12.679,12.679,0,0,1-6.511-2.55c-2.031-1.71-3.407-4.455-3.407-8.921h0a9.462,9.462,0,0,1,.611-3.414,9.123,9.123,0,0,1,1.663-2.74,7.37,7.37,0,0,1-.382-1.937,9.421,9.421,0,0,1,.686-4.113l.015-.03a1.222,1.222,0,0,1,.671-.257,4.78,4.78,0,0,1,1.179.107,13.847,13.847,0,0,1,4.778,2.23,20.983,20.983,0,0,1,2.645-.527,22.985,22.985,0,0,1,2.954-.2h0a22.946,22.946,0,0,1,2.951.2,21.078,21.078,0,0,1,2.648.528c4.371-2.919,6.386-2.275,6.392-2.274l.176.052.068.171a9.411,9.411,0,0,1,.69,4.112,7.393,7.393,0,0,1-.38,1.937,9.069,9.069,0,0,1,1.66,2.736,9.49,9.49,0,0,1,.611,3.419c0,4.478-1.378,7.223-3.413,8.926a12.685,12.685,0,0,1-6.52,2.528,5.009,5.009,0,0,1,.712,1.324,7.5,7.5,0,0,1,.421,2.585c0,1.816-.013,3.7-.022,4.955,0,.459-.006.8-.006,1.255h0a.96.96,0,0,0,.018.181C363.787,306.447,351.719,306.434,351.747,306.282Z" transform="translate(-340.473 -272.047)" fill="#c356bb"/>
</svg>
