<svg xmlns="http://www.w3.org/2000/svg" width="32.13" height="31.986" viewBox="0 0 32.13 31.986">
  <g id="if_linkedin-social-media_765228" transform="translate(0 0)">
    <g id="linkedin" transform="translate(0 0)">
      <path id="Path_54" data-name="Path 54" d="M6.793,31.14V9.986H.255V31.14Zm0-28.652A3.215,3.215,0,0,0,3.443-.846,3.226,3.226,0,0,0,.053,2.488,3.207,3.207,0,0,0,3.364,5.823H3.4A3.227,3.227,0,0,0,6.793,2.488ZM17.459,31.14V19.088a4.9,4.9,0,0,1,.236-1.75,3.926,3.926,0,0,1,3.681-2.624c2.6,0,4.224,1.473,4.224,4.374V31.14h6.582V18.765c0-6.629-3.539-9.714-8.259-9.714a7.144,7.144,0,0,0-6.512,3.636l.047-2.829H10.888c.095,2.025,0,21.281,0,21.281Z" transform="translate(-0.053 0.846)" fill="#c356bb" fill-rule="evenodd"/>
    </g>
  </g>
</svg>
