<svg xmlns="http://www.w3.org/2000/svg" width="19.161" height="16.708" viewBox="0 0 19.161 16.708">
  <g id="link" transform="translate(22.787 0.689) rotate(105)">
    <path id="Path_87" data-name="Path 87" d="M8.971,5.2l3.711,3.711a1.757,1.757,0,0,1,0,2.481l-1.238,1.237,1.229,1.23,1.238-1.237a3.5,3.5,0,0,0,0-4.94L10.2,3.973a3.493,3.493,0,0,0-4.94,0L4.023,5.21a3.5,3.5,0,0,0,0,4.94L5.252,8.921a1.757,1.757,0,0,1,0-2.481L6.49,5.2a1.8,1.8,0,0,1,2.482,0Z" transform="translate(0 0)" fill="#82d6c9"/>
    <path id="Path_88" data-name="Path 88" d="M18.181,12.107l-1.229,1.229a1.757,1.757,0,0,1,0,2.481l-1.238,1.237a1.8,1.8,0,0,1-2.482,0L9.522,13.344a1.757,1.757,0,0,1,0-2.481l1.238-1.237L9.53,8.4,8.293,9.633a3.5,3.5,0,0,0,0,4.94L12,18.284a3.493,3.493,0,0,0,4.94,0l1.238-1.237A3.5,3.5,0,0,0,18.181,12.107Z" transform="translate(-0.559 -0.713)" fill="#82d6c9"/>
  </g>
</svg>
