<svg xmlns="http://www.w3.org/2000/svg" width="95" height="95" viewBox="0 0 95 95">
  <g id="if_takeoff_1054961" transform="translate(0)">
    <circle id="Ellipse_11" data-name="Ellipse 11" cx="47.5" cy="47.5" r="47.5" fill="#82d6c9"/>
    <path id="Path_40" data-name="Path 40" d="M70.035,27.487l-28.9,26.385a20.831,20.831,0,0,1-15.389,4.487,63.3,63.3,0,0,1-15.62-4.572l2.78-3.643H28.115S54.2,28.42,57.562,25.06c2.859-2.859,10.02-4.849,14.721-3.754C73.86,21.674,74.488,23.033,70.035,27.487Z" transform="translate(4.905 10.172)" fill="#fff7fc" opacity="0.2"/>
    <path id="Path_41" data-name="Path 41" d="M41.6,38.318,15.75,34.359l3.85-5.287H52.488Z" transform="translate(7.629 14.082)" fill="#fff7fc" opacity="0.2"/>
    <path id="Path_42" data-name="Path 42" d="M70.035,25.487l-28.9,26.385a20.831,20.831,0,0,1-15.389,4.487,63.3,63.3,0,0,1-15.62-4.572l2.78-3.643H28.115S54.2,26.42,57.562,23.06c2.859-2.859,10.02-4.849,14.721-3.754C73.86,19.674,74.488,21.033,70.035,25.487Z" transform="translate(4.905 9.203)" fill="#fff7fc"/>
    <path id="Path_43" data-name="Path 43" d="M41.6,36.53,15.75,32.572l3.34-5.938H53.23Z" transform="translate(7.629 12.901)" fill="#fff7fc"/>
  </g>
</svg>
