<svg id="if_computer_1055084" xmlns="http://www.w3.org/2000/svg" width="95" height="95" viewBox="0 0 95 95">
  <g id="Group_35" data-name="Group 35">
    <circle id="Ellipse_6" data-name="Ellipse 6" cx="47.5" cy="47.5" r="47.5" fill="#82d6c9"/>
  </g>
  <g id="Group_36" data-name="Group 36" transform="translate(29.688 74.219)" opacity="0.2">
    <path id="Path_20" data-name="Path 20" d="M55.625,52.969a2.968,2.968,0,0,1-2.969,2.969H22.969A2.968,2.968,0,0,1,20,52.969h0A2.968,2.968,0,0,1,22.969,50H52.656a2.968,2.968,0,0,1,2.969,2.969Z" transform="translate(-20 -50)" fill="#fff7fc"/>
  </g>
  <g id="Group_37" data-name="Group 37" transform="translate(29.688 71.25)">
    <path id="Path_21" data-name="Path 21" d="M55.625,50.969a2.968,2.968,0,0,1-2.969,2.969H22.969A2.968,2.968,0,0,1,20,50.969h0A2.968,2.968,0,0,1,22.969,48H52.656a2.968,2.968,0,0,1,2.969,2.969Z" transform="translate(-20 -48)" fill="#fff7fc"/>
  </g>
  <g id="Group_38" data-name="Group 38" transform="translate(34.84 62.344)">
    <path id="Path_22" data-name="Path 22" d="M43.553,42s-1.484,8.906,4.453,8.906H24.256c5.938,0,4.453-8.906,4.453-8.906Z" transform="translate(-23.471 -42)" fill="#fff7fc"/>
  </g>
  <g id="Group_43" data-name="Group 43" transform="translate(17.813 17.813)">
    <g id="Group_42" data-name="Group 42">
      <path id="Path_25" data-name="Path 25" d="M65.437,16.453a1.487,1.487,0,0,1,1.484,1.484V50.594a1.487,1.487,0,0,1-1.484,1.484h-47.5a1.487,1.487,0,0,1-1.484-1.484V17.938a1.487,1.487,0,0,1,1.484-1.484h47.5m0-4.453h-47.5A5.938,5.938,0,0,0,12,17.938V50.594a5.938,5.938,0,0,0,5.938,5.937h47.5a5.938,5.938,0,0,0,5.938-5.937V17.938A5.938,5.938,0,0,0,65.437,12Z" transform="translate(-12 -12)" fill="#fff7fc"/>
    </g>
  </g>
</svg>
