<svg xmlns="http://www.w3.org/2000/svg" width="31.751" height="28.517" viewBox="0 0 31.751 28.517">
  <g id="if_twitter-social-media_765208" transform="translate(0 0)">
    <g id="twitter" transform="translate(0 0)">
      <path id="Path_53" data-name="Path 53" d="M27.584,2.5A6.365,6.365,0,0,0,22.829.155c-3.6-.063-6.514,3.123-6.514,7.114a8.039,8.039,0,0,0,.169,1.649A18.17,18.17,0,0,1,3.057,1.143a7.837,7.837,0,0,0-.882,3.65,7.636,7.636,0,0,0,2.9,6.1,6.025,6.025,0,0,1-2.95-.944c0,.03,0,.061,0,.092a7.2,7.2,0,0,0,5.225,7.185,5.861,5.861,0,0,1-2.942.1,6.69,6.69,0,0,0,6.085,5.08A12.235,12.235,0,0,1,2.4,25.5a11.853,11.853,0,0,1-1.554-.105,17.029,17.029,0,0,0,9.986,3.28c11.982,0,18.534-10.923,18.534-20.4q0-.466-.019-.928A13.8,13.8,0,0,0,32.6,3.681a11.992,11.992,0,0,1-3.741,1.072A6.966,6.966,0,0,0,31.72.833,12.17,12.17,0,0,1,27.584,2.5Z" transform="translate(-0.846 -0.154)" fill="#c356bb" fill-rule="evenodd"/>
    </g>
  </g>
</svg>
